<?xml version="1.0" encoding="utf-8"?>
<!-- Generator: Adobe Illustrator 16.0.0, SVG Export Plug-In . SVG Version: 6.00 Build 0)  -->
<!DOCTYPE svg PUBLIC "-//W3C//DTD SVG 1.1//EN" "http://www.w3.org/Graphics/SVG/1.1/DTD/svg11.dtd">
<svg version="1.1" id="Layer_1" xmlns="http://www.w3.org/2000/svg" xmlns:xlink="http://www.w3.org/1999/xlink" x="0px" y="0px"
	 width="44px" height="44px" viewBox="0 0 44 44" enable-background="new 0 0 44 44" xml:space="preserve">
<g opacity="0.05">
	<g>
		<path fill="#272A35" d="M198.298,134.393c0.002-0.03,0.001-0.061-0.003-0.084c-0.052-0.369-0.281-0.68-0.703-0.953
			c-0.391-0.239-0.839-0.365-1.296-0.368c-0.108,0-0.21,0.044-0.276,0.12c-0.063,0.07-0.094,0.165-0.082,0.263
			c0.258,2.364,0.258,5.3,0,7.662c-0.012,0.101,0.018,0.19,0.082,0.265c0.066,0.075,0.168,0.118,0.276,0.118l0,0
			c0.458,0,0.908-0.129,1.304-0.373c0.416-0.268,0.645-0.577,0.695-0.944c0.004-0.022,0.005-0.056,0.004-0.086
			C198.167,138.225,198.167,136.178,198.298,134.393z"/>
		<path fill="#272A35" d="M193.965,133.783c-0.232-0.506-0.688-0.798-1.247-0.799c-0.337,0.001-0.647,0.199-0.926,0.593
			c-0.157,0.235-0.308,0.548-0.456,0.938c-0.006,0.016-0.014,0.027-0.018,0.043c-0.004,0.011-0.006,0.021-0.01,0.031
			c-0.02,0.082-0.012,0.178,0.021,0.273c0.089,0.256,0.318,0.445,0.54,0.445c0.065,0,0.124-0.014,0.179-0.047
			c0.012-0.008,0.032-0.021,0.041-0.027l0.014-0.012c0-0.002,0.002-0.004,0.004-0.006c0.041-0.024,0.074-0.05,0.102-0.066
			c0.333,1.341,0.333,2.749,0.001,4.087c-0.028-0.019-0.062-0.039-0.103-0.068c-0.004-0.006-0.01-0.008-0.015-0.012
			c-0.015-0.015-0.03-0.026-0.049-0.035c-0.051-0.028-0.108-0.043-0.172-0.043c-0.222,0-0.453,0.19-0.54,0.445
			c-0.032,0.098-0.04,0.19-0.021,0.268c0.004,0.019,0.008,0.035,0.014,0.048c0.003,0.008,0.007,0.019,0.007,0.021
			c0.157,0.416,0.306,0.721,0.468,0.963c0.273,0.39,0.584,0.586,0.922,0.588c0,0,0,0,0.002,0c0.563-0.006,1.004-0.282,1.235-0.782
			c0.159-0.306,0.372-0.875,0.478-1.849c0.108-1.036,0.107-2.129-0.002-3.164C194.354,134.859,194.186,134.204,193.965,133.783z"/>
		<path fill="#272A35" d="M200.271,133.783c0.23-0.506,0.687-0.798,1.246-0.799c0.336,0.001,0.647,0.199,0.926,0.593
			c0.156,0.235,0.309,0.548,0.457,0.938c0.006,0.016,0.012,0.027,0.016,0.043c0.004,0.011,0.007,0.021,0.01,0.031
			c0.021,0.082,0.014,0.178-0.021,0.273c-0.086,0.256-0.318,0.445-0.539,0.445c-0.064,0-0.123-0.014-0.18-0.047
			c-0.011-0.008-0.031-0.021-0.039-0.027l-0.014-0.012c-0.002-0.002-0.003-0.004-0.006-0.006c-0.039-0.024-0.072-0.05-0.102-0.066
			c-0.332,1.341-0.332,2.749,0,4.087c0.029-0.019,0.063-0.039,0.103-0.068c0.005-0.006,0.011-0.008,0.015-0.012
			c0.014-0.015,0.03-0.026,0.049-0.035c0.052-0.028,0.108-0.043,0.172-0.043c0.222,0,0.453,0.19,0.541,0.445
			c0.031,0.098,0.039,0.19,0.021,0.268c-0.004,0.019-0.008,0.035-0.013,0.048c-0.004,0.008-0.008,0.019-0.01,0.021
			c-0.154,0.416-0.303,0.721-0.467,0.963c-0.272,0.39-0.584,0.586-0.922,0.588l0,0c-0.563-0.006-1.004-0.282-1.236-0.782
			c-0.16-0.306-0.373-0.875-0.477-1.849c-0.107-1.036-0.107-2.129,0-3.164C199.883,134.859,200.05,134.204,200.271,133.783z"/>
	</g>
	<g>
		<path fill="#272A35" d="M207.646,140.393v-4.242c0-0.225-0.023-0.399-0.074-0.531c-0.047-0.13-0.184-0.195-0.409-0.195
			c-0.244,0-0.565,0.256-0.97,0.765c-0.399,0.511-0.602,0.811-0.602,0.896v2.467c-0.048,0.203-0.214,0.396-0.497,0.573
			c-0.282,0.179-0.563,0.269-0.843,0.269v-4.969c0-0.154-0.059-0.229-0.175-0.229c-0.146,0-0.423,0.131-0.831,0.396
			c0.367-0.469,0.701-0.834,1.006-1.102s0.544-0.4,0.718-0.4c0.271,0,0.441,0.148,0.515,0.443c0.072,0.297,0.107,0.756,0.107,1.376
			v0.54c0.379-0.593,0.779-1.134,1.203-1.624c0.421-0.491,0.866-0.735,1.333-0.735c0.358,0,0.597,0.12,0.713,0.362
			c0.117,0.244,0.177,0.606,0.177,1.095c0,0.146,0,0.288,0,0.43s0,0.285,0,0.431c0.357-0.515,0.758-1.028,1.2-1.545
			c0.442-0.515,0.886-0.771,1.333-0.771c0.311,0,0.531,0.082,0.663,0.246c0.131,0.164,0.196,0.444,0.196,0.844v4.186
			c0,0.23,0.072,0.35,0.219,0.35c0.165,0,0.418-0.149,0.76-0.451c-0.117,0.314-0.308,0.586-0.57,0.807
			c-0.262,0.221-0.563,0.331-0.902,0.331c-0.563,0-0.846-0.362-0.846-1.091v-3.15c0-0.254-0.039-0.438-0.116-0.552
			c-0.077-0.117-0.203-0.177-0.379-0.177c-0.224,0-0.539,0.26-0.947,0.771c-0.407,0.518-0.61,0.813-0.61,0.891v2.467
			c-0.05,0.203-0.211,0.395-0.488,0.572C208.251,140.303,207.957,140.393,207.646,140.393z"/>
		<path fill="#272A35" d="M219.143,134.083v5.392c0.01,0.127,0.071,0.188,0.188,0.188c0.086,0,0.192-0.03,0.313-0.094
			c0.121-0.065,0.319-0.175,0.59-0.33c-0.125,0.262-0.338,0.521-0.633,0.772c-0.297,0.252-0.582,0.379-0.854,0.379
			c-0.153,0-0.354-0.106-0.604-0.321c-0.246-0.211-0.371-0.498-0.371-0.859v-0.786c-0.592,0.594-1.094,1.069-1.5,1.43
			c-0.406,0.359-0.764,0.539-1.063,0.539c-0.33,0-0.623-0.19-0.881-0.582c-0.26-0.389-0.387-0.907-0.387-1.562
			c0-1.321,0.363-2.346,1.092-3.073c0.729-0.729,1.676-1.094,2.842-1.094L219.143,134.083L219.143,134.083z M215.339,137.145
			c0,0.475,0.078,0.824,0.231,1.047c0.156,0.223,0.371,0.336,0.644,0.336c0.231,0,0.481-0.07,0.75-0.213
			c0.269-0.141,0.537-0.332,0.81-0.574v-3.249c-0.729,0-1.316,0.271-1.765,0.81C215.563,135.838,215.339,136.453,215.339,137.145z"
			/>
		<path fill="#272A35" d="M224.298,140.393v-4.242c0-0.225-0.022-0.399-0.071-0.531c-0.049-0.13-0.187-0.195-0.412-0.195
			c-0.242,0-0.566,0.256-0.967,0.765c-0.402,0.511-0.603,0.811-0.603,0.896v2.467c-0.048,0.203-0.214,0.396-0.498,0.573
			c-0.283,0.179-0.563,0.269-0.845,0.269v-4.969c0-0.154-0.058-0.229-0.174-0.229c-0.146,0-0.422,0.131-0.83,0.396
			c0.365-0.469,0.701-0.834,1.006-1.102c0.306-0.268,0.543-0.4,0.718-0.4c0.271,0,0.44,0.148,0.515,0.443
			c0.071,0.297,0.108,0.756,0.108,1.376v0.54c0.379-0.593,0.778-1.134,1.2-1.624c0.425-0.491,0.867-0.735,1.332-0.735
			c0.361,0,0.599,0.12,0.716,0.362c0.116,0.244,0.176,0.606,0.176,1.095c0,0.146,0,0.288,0,0.43s0,0.285,0,0.431
			c0.356-0.515,0.761-1.028,1.201-1.545c0.44-0.515,0.889-0.771,1.334-0.771c0.312,0,0.53,0.082,0.662,0.246
			c0.133,0.164,0.196,0.444,0.196,0.844v4.186c0,0.23,0.072,0.35,0.219,0.35c0.164,0,0.416-0.149,0.759-0.451
			c-0.117,0.314-0.308,0.586-0.567,0.807c-0.263,0.221-0.564,0.331-0.904,0.331c-0.563,0-0.846-0.362-0.846-1.091v-3.15
			c0-0.254-0.037-0.438-0.117-0.552c-0.076-0.117-0.203-0.177-0.377-0.177c-0.226,0-0.539,0.26-0.945,0.771
			c-0.408,0.518-0.613,0.813-0.613,0.891v2.467c-0.049,0.203-0.211,0.395-0.486,0.572
			C224.904,140.303,224.609,140.393,224.298,140.393z"/>
		<path fill="#272A35" d="M233.77,134.01c0.797,0,1.422,0.285,1.871,0.857c0.453,0.573,0.68,1.28,0.68,2.123
			c0,0.893-0.33,1.682-0.99,2.369c-0.66,0.689-1.398,1.033-2.215,1.033c-0.768,0-1.381-0.289-1.836-0.865
			c-0.457-0.578-0.686-1.301-0.686-2.174c0-0.871,0.321-1.647,0.963-2.325C232.197,134.352,232.936,134.01,233.77,134.01z
			 M231.876,136.496c0,0.795,0.104,1.526,0.313,2.193c0.207,0.67,0.678,1.004,1.404,1.004c0.418,0,0.758-0.176,1.021-0.523
			c0.262-0.35,0.395-0.795,0.395-1.337c0-0.782-0.133-1.504-0.395-2.155c-0.264-0.651-0.711-0.98-1.342-0.98
			c-0.428,0-0.769,0.169-1.021,0.51C232.001,135.542,231.876,135.975,231.876,136.496z"/>
	</g>
</g>
<line opacity="0.1" fill="none" stroke="#272A35" stroke-width="0.3153" stroke-miterlimit="10" stroke-dasharray="3.4574" enable-background="new    " x1="166" y1="87" x2="134.883" y2="118.109"/>
<line opacity="0.1" fill="none" stroke="#272A35" stroke-width="0.3153" stroke-miterlimit="10" stroke-dasharray="3.4574" enable-background="new    " x1="134.883" y1="55.893" x2="166" y2="87"/>
<line opacity="0.1" fill="none" stroke="#272A35" stroke-width="0.3153" stroke-miterlimit="10" stroke-dasharray="3.4574" enable-background="new    " x1="166" y1="87" x2="197.117" y2="55.893"/>
<line opacity="0.1" fill="none" stroke="#272A35" stroke-width="0.3153" stroke-miterlimit="10" stroke-dasharray="3.4574" enable-background="new    " x1="166" y1="87" x2="197.107" y2="118.117"/>
<g opacity="0.05">
	<path fill="#272A35" d="M167.145,84.282c0.002-0.028,0-0.058-0.004-0.081c-0.051-0.357-0.271-0.659-0.682-0.926
		c-0.379-0.229-0.813-0.354-1.254-0.354c-0.105,0-0.205,0.042-0.271,0.116c-0.062,0.066-0.09,0.158-0.08,0.254
		c0.252,2.29,0.252,5.135,0,7.422c-0.01,0.1,0.019,0.186,0.08,0.258c0.063,0.07,0.162,0.111,0.271,0.111l0,0
		c0.442,0,0.879-0.125,1.26-0.359c0.404-0.26,0.625-0.559,0.676-0.914c0.006-0.022,0.006-0.057,0.006-0.082
		C167.016,87.994,167.016,86.01,167.145,84.282z"/>
	<path fill="#272A35" d="M162.944,83.689c-0.225-0.488-0.666-0.771-1.207-0.771c-0.327,0-0.625,0.191-0.896,0.575
		c-0.152,0.228-0.299,0.528-0.443,0.907c-0.004,0.017-0.01,0.027-0.018,0.043c-0.002,0.011-0.004,0.021-0.01,0.029
		c-0.019,0.08-0.011,0.172,0.021,0.268c0.086,0.246,0.309,0.432,0.523,0.432c0.063,0,0.119-0.014,0.172-0.044
		c0.012-0.008,0.031-0.021,0.041-0.026l0.014-0.012c0-0.002,0.002-0.004,0.004-0.006c0.039-0.023,0.07-0.048,0.1-0.063
		c0.32,1.297,0.32,2.664,0,3.957c-0.027-0.018-0.061-0.039-0.1-0.065c-0.004-0.006-0.01-0.008-0.016-0.013
		c-0.014-0.014-0.029-0.024-0.047-0.032c-0.049-0.029-0.104-0.043-0.166-0.043c-0.215,0-0.438,0.186-0.523,0.432
		c-0.031,0.097-0.039,0.187-0.021,0.261c0.006,0.02,0.008,0.034,0.015,0.045c0.004,0.008,0.008,0.016,0.008,0.016
		c0.149,0.404,0.295,0.699,0.451,0.936c0.269,0.377,0.567,0.566,0.896,0.568c0,0,0,0,0.002,0c0.543-0.006,0.971-0.273,1.196-0.76
		c0.151-0.295,0.358-0.848,0.461-1.789c0.104-1.004,0.104-2.063-0.002-3.064C163.322,84.734,163.16,84.1,162.944,83.689z"/>
	<path fill="#272A35" d="M169.055,83.689c0.225-0.488,0.664-0.771,1.209-0.771c0.324,0,0.625,0.191,0.896,0.575
		c0.148,0.228,0.299,0.528,0.439,0.907c0.008,0.017,0.016,0.027,0.018,0.043c0.004,0.011,0.008,0.021,0.01,0.029
		c0.021,0.08,0.016,0.172-0.02,0.268c-0.082,0.246-0.309,0.432-0.521,0.432c-0.063,0-0.121-0.014-0.176-0.044
		c-0.012-0.008-0.031-0.021-0.039-0.026l-0.014-0.012c-0.002-0.002-0.006-0.004-0.006-0.006c-0.037-0.023-0.068-0.048-0.1-0.063
		c-0.322,1.297-0.322,2.664,0,3.957c0.027-0.018,0.063-0.039,0.1-0.065c0.006-0.006,0.012-0.008,0.016-0.013
		c0.014-0.014,0.027-0.024,0.049-0.032c0.049-0.029,0.104-0.043,0.166-0.043c0.215,0,0.438,0.186,0.521,0.432
		c0.029,0.097,0.039,0.187,0.021,0.261c-0.006,0.02-0.01,0.034-0.014,0.045c-0.004,0.008-0.008,0.016-0.01,0.016
		c-0.15,0.404-0.295,0.699-0.451,0.936c-0.268,0.377-0.566,0.566-0.895,0.568l0,0c-0.547-0.006-0.971-0.273-1.197-0.76
		c-0.154-0.295-0.359-0.848-0.461-1.789c-0.105-1.004-0.105-2.063,0-3.064C168.68,84.734,168.84,84.1,169.055,83.689z"/>
</g>
<g opacity="0.2">
	
		<rect x="-15.844" y="14.592" transform="matrix(0.7071 -0.7071 0.7071 0.7071 -14.6796 -6.034)" fill="#272A35" width="2.44" height="0.221"/>
	
		<rect x="-8.941" y="7.692" transform="matrix(0.7071 -0.7071 0.7071 0.7071 -7.7791 -3.1739)" fill="#272A35" width="2.44" height="0.222"/>
	
		<rect x="-5.49" y="4.242" transform="matrix(0.7072 -0.707 0.707 0.7072 -4.3279 -1.744)" fill="#272A35" width="2.44" height="0.222"/>
	
		<rect x="-12.391" y="11.143" transform="matrix(0.7073 -0.7069 0.7069 0.7073 -11.2252 -4.6036)" fill="#272A35" width="2.438" height="0.222"/>
	
		<rect x="-19.294" y="18.042" transform="matrix(0.707 -0.7072 0.7072 0.707 -18.1337 -7.4638)" fill="#272A35" width="2.439" height="0.222"/>
	<polygon fill="#272A35" points="-20.585,20.819 -20.742,20.663 -21.995,21.916 -21.913,21.997 -21.995,22.079 -20.27,23.803 
		-20.112,23.647 -21.762,21.997 	"/>
	
		<rect x="-5.017" y="-3.911" transform="matrix(-0.7073 -0.7069 0.7069 -0.7073 -3.796 -9.1723)" fill="#272A35" width="2.44" height="0.222"/>
	
		<rect x="-22.274" y="-21.162" transform="matrix(-0.7072 -0.707 0.707 -0.7072 -21.0598 -50.8236)" fill="#272A35" width="2.44" height="0.222"/>
	
		<rect x="-18.822" y="-17.712" transform="matrix(-0.707 -0.7072 0.7072 -0.707 -17.5996 -42.4926)" fill="#272A35" width="2.439" height="0.222"/>
	
		<rect x="-8.468" y="-7.362" transform="matrix(-0.7069 -0.7073 0.7073 -0.7069 -7.2441 -17.5033)" fill="#272A35" width="2.44" height="0.222"/>
	
		<rect x="-11.919" y="-10.812" transform="matrix(-0.7073 -0.7069 0.7069 -0.7073 -10.7033 -25.833)" fill="#272A35" width="2.438" height="0.222"/>
	
		<rect x="-15.371" y="-14.262" transform="matrix(-0.707 -0.7072 0.7072 -0.707 -14.1482 -34.1628)" fill="#272A35" width="2.439" height="0.222"/>
	
		<rect x="11.15" y="-12.393" transform="matrix(-0.7082 -0.706 0.706 -0.7082 27.1239 -11.1358)" fill="#272A35" width="0.222" height="2.44"/>
	
		<rect x="18.052" y="-19.294" transform="matrix(-0.706 -0.7082 0.7082 -0.706 43.7864 -17.9712)" fill="#272A35" width="0.223" height="2.44"/>
	
		<rect x="14.6" y="-15.844" transform="matrix(-0.7071 -0.7071 0.7071 -0.7071 35.4544 -14.5614)" fill="#272A35" width="0.222" height="2.441"/>
	<polygon fill="#272A35" points="1.691,-1.764 0.045,-0.117 -1.13,-1.291 -1.288,-1.134 -0.112,0.04 -1.76,1.687 -1.602,1.844 
		0.045,0.197 1.691,1.844 1.849,1.687 0.201,0.04 1.849,-1.606 	"/>
	
		<rect x="4.248" y="-5.492" transform="matrix(-0.7049 -0.7093 0.7093 -0.7049 10.4613 -4.1931)" fill="#272A35" width="0.222" height="2.439"/>
	
		<rect x="7.698" y="-8.943" transform="matrix(-0.7071 -0.7071 0.7071 -0.7071 18.7919 -7.662)" fill="#272A35" width="0.222" height="2.439"/>
	
		<rect x="6.588" y="7.694" transform="matrix(0.7073 0.7069 -0.7069 0.7073 7.8029 -3.2347)" fill="#272A35" width="2.44" height="0.222"/>
	
		<rect x="10.038" y="11.146" transform="matrix(0.7068 0.7074 -0.7074 0.7068 11.2634 -4.6628)" fill="#272A35" width="2.439" height="0.222"/>
	
		<rect x="3.137" y="4.243" transform="matrix(0.707 0.7072 -0.7072 0.707 4.3557 -1.8056)" fill="#272A35" width="2.439" height="0.222"/>
	
		<rect x="13.488" y="14.597" transform="matrix(0.7072 0.707 -0.707 0.7072 14.7048 -6.092)" fill="#272A35" width="2.44" height="0.222"/>
	
		<rect x="34.972" y="7.692" transform="matrix(0.7071 -0.7071 0.7071 0.7071 5.0828 27.8774)" fill="#272A35" width="2.44" height="0.222"/>
	
		<rect x="31.521" y="11.143" transform="matrix(0.7071 -0.7071 0.7071 0.7071 1.6318 26.4474)" fill="#272A35" width="2.439" height="0.222"/>
	
		<rect x="38.423" y="4.243" transform="matrix(0.7074 -0.7068 0.7068 0.7074 8.5225 29.2941)" fill="#272A35" width="2.441" height="0.221"/>
	
		<rect x="28.07" y="14.593" transform="matrix(0.7074 -0.7068 0.7068 0.7074 -1.8229 25.0051)" fill="#272A35" width="2.441" height="0.222"/>
	
		<rect x="25.091" y="-17.712" transform="matrix(-0.7072 -0.707 0.707 -0.7072 57.3613 -11.4461)" fill="#272A35" width="2.44" height="0.222"/>
	
		<rect x="28.543" y="-14.262" transform="matrix(-0.7072 -0.707 0.707 -0.7072 60.8157 -3.1156)" fill="#272A35" width="2.44" height="0.222"/>
	
		<rect x="31.994" y="-10.812" transform="matrix(-0.7071 -0.7071 0.7071 -0.7071 64.266 5.219)" fill="#272A35" width="2.44" height="0.223"/>
	
		<rect x="35.444" y="-7.361" transform="matrix(-0.7074 -0.7068 0.7068 -0.7074 67.7256 13.536)" fill="#272A35" width="2.441" height="0.222"/>
	
		<rect x="38.895" y="-3.91" transform="matrix(-0.7073 -0.7069 0.7069 -0.7073 71.1749 21.8707)" fill="#272A35" width="2.44" height="0.221"/>
	<polygon fill="#272A35" points="22.001,-21.917 21.926,-21.992 20.673,-20.739 20.829,-20.582 22.001,-21.753 23.645,-20.11 
		23.801,-20.267 22.075,-21.992 	"/>
	
		<rect x="55.063" y="-12.393" transform="matrix(-0.7038 -0.7104 0.7104 -0.7038 101.9399 20.1593)" fill="#272A35" width="0.221" height="2.44"/>
	
		<rect x="61.965" y="-19.294" transform="matrix(-0.7038 -0.7104 0.7104 -0.7038 118.6043 13.304)" fill="#272A35" width="0.222" height="2.44"/>
	
		<rect x="65.18" y="-22.173" transform="matrix(0.7049 0.7093 -0.7093 0.7049 4.1681 -52.5928)" fill="#272A35" width="0.222" height="1.772"/>
	
		<rect x="51.611" y="-8.943" transform="matrix(-0.7071 -0.7071 0.7071 -0.7071 93.7562 23.3893)" fill="#272A35" width="0.222" height="2.439"/>
	<polygon fill="#272A35" points="45.604,-1.764 43.956,-0.117 42.783,-1.291 42.627,-1.134 43.8,0.04 42.154,1.687 42.311,1.844 
		43.956,0.197 45.604,1.844 45.761,1.687 44.114,0.04 45.761,-1.606 	"/>
	
		<rect x="58.513" y="-15.844" transform="matrix(-0.7093 -0.7049 0.7049 -0.7093 110.5148 16.3294)" fill="#272A35" width="0.223" height="2.44"/>
	
		<rect x="48.16" y="-5.493" transform="matrix(-0.7071 -0.7071 0.7071 -0.7071 85.425 26.8388)" fill="#272A35" width="0.222" height="2.441"/>
	
		<rect x="50.5" y="7.695" transform="matrix(0.7073 0.7069 -0.7069 0.7073 20.6559 -34.2768)" fill="#272A35" width="2.44" height="0.221"/>
	
		<rect x="48.159" y="3.134" transform="matrix(0.7082 -0.706 0.706 0.7082 11.0108 35.3495)" fill="#272A35" width="0.222" height="2.44"/>
	
		<rect x="53.95" y="11.146" transform="matrix(0.7072 0.707 -0.707 0.7072 24.1119 -35.7097)" fill="#272A35" width="2.44" height="0.222"/>
	<polygon fill="#272A35" points="65.989,21.921 64.737,20.668 64.58,20.826 65.757,22.003 64.586,23.175 64.744,23.332 
		65.995,22.079 65.914,21.997 	"/>
	
		<rect x="60.851" y="18.047" transform="matrix(0.7067 0.7075 -0.7075 0.7067 31.0525 -38.59)" fill="#272A35" width="2.44" height="0.223"/>
	
		<rect x="57.401" y="14.596" transform="matrix(0.7068 0.7074 -0.7074 0.7068 27.5913 -37.1569)" fill="#272A35" width="2.44" height="0.223"/>
	
		<rect x="-11.283" y="53.948" transform="matrix(-0.7027 -0.7115 0.7115 -0.7027 -58.2732 85.9851)" fill="#272A35" width="0.222" height="2.44"/>
	
		<rect x="-18.186" y="60.848" transform="matrix(-0.7049 -0.7093 0.7093 -0.7049 -74.8389 92.9997)" fill="#272A35" width="0.223" height="2.44"/>
	
		<rect x="-14.734" y="57.398" transform="matrix(-0.7049 -0.7093 0.7093 -0.7049 -66.5087 89.5651)" fill="#272A35" width="0.222" height="2.44"/>
	
		<rect x="-21.401" y="64.396" transform="matrix(-0.7071 -0.7071 0.7071 -0.7071 -82.5055 96.3886)" fill="#272A35" width="0.222" height="1.771"/>
	
		<rect x="-7.832" y="50.497" transform="matrix(-0.7071 -0.7071 0.7071 -0.7071 -49.7498 82.8256)" fill="#272A35" width="0.222" height="2.439"/>
	
		<rect x="-4.38" y="47.046" transform="matrix(-0.7093 -0.7049 0.7049 -0.7093 -41.3207 79.492)" fill="#272A35" width="0.222" height="2.44"/>
	
		<rect x="-15.371" y="29.651" transform="matrix(-0.7068 -0.7074 0.7074 -0.7068 -45.2073 40.7891)" fill="#272A35" width="2.44" height="0.223"/>
	
		<rect x="-11.919" y="33.103" transform="matrix(-0.7073 -0.7069 0.7069 -0.7073 -41.7464 49.1417)" fill="#272A35" width="2.438" height="0.222"/>
	
		<rect x="-18.822" y="26.201" transform="matrix(-0.7068 -0.7074 0.7074 -0.7068 -48.6569 32.4585)" fill="#272A35" width="2.44" height="0.223"/>
	
		<rect x="-8.468" y="36.552" transform="matrix(-0.7071 -0.7071 0.7071 -0.7071 -38.2987 57.4623)" fill="#272A35" width="2.439" height="0.222"/>
	
		<rect x="-5.017" y="40.003" transform="matrix(-0.7069 -0.7073 0.7073 -0.7069 -34.8537 65.7849)" fill="#272A35" width="2.441" height="0.221"/>
	
		<rect x="4.248" y="38.421" transform="matrix(-0.7049 -0.7093 0.7093 -0.7049 -20.6867 70.6748)" fill="#272A35" width="0.222" height="2.44"/>
	
		<rect x="7.698" y="34.972" transform="matrix(-0.7093 -0.7049 0.7049 -0.7093 -12.1629 67.366)" fill="#272A35" width="0.222" height="2.438"/>
	<polygon fill="#272A35" points="1.691,42.149 0.044,43.797 -1.13,42.623 -1.288,42.78 -0.112,43.954 -1.76,45.601 -1.602,45.758 
		0.045,44.11 1.691,45.758 1.849,45.601 0.201,43.953 1.849,42.307 	"/>
	
		<rect x="11.15" y="31.52" transform="matrix(-0.7071 -0.7071 0.7071 -0.7071 -3.9276 63.8536)" fill="#272A35" width="0.222" height="2.44"/>
	
		<rect x="14.601" y="28.07" transform="matrix(-0.7093 -0.7049 0.7049 -0.7093 4.4996 60.4362)" fill="#272A35" width="0.222" height="2.441"/>
	
		<rect x="10.036" y="55.058" transform="matrix(-0.7065 -0.7077 0.7077 -0.7065 -19.8339 102.1135)" fill="#272A35" width="2.441" height="0.222"/>
	
		<rect x="16.937" y="61.961" transform="matrix(-0.7065 -0.7077 0.7077 -0.7065 -12.943 118.7779)" fill="#272A35" width="2.441" height="0.223"/>
	
		<rect x="13.488" y="58.511" transform="matrix(-0.7071 -0.7071 0.7071 -0.7071 -16.3448 110.4739)" fill="#272A35" width="2.439" height="0.222"/>
	
		<rect x="6.587" y="51.608" transform="matrix(-0.7071 -0.7071 0.7071 -0.7071 -23.2426 93.8111)" fill="#272A35" width="2.44" height="0.222"/>
	
		<rect x="3.136" y="48.157" transform="matrix(-0.7067 -0.7075 0.7075 -0.7067 -26.7133 85.4603)" fill="#272A35" width="2.442" height="0.221"/>
	
		<rect x="29.179" y="57.398" transform="matrix(-0.7071 -0.7071 0.7071 -0.7071 8.5523 120.7778)" fill="#272A35" width="0.222" height="2.44"/>
	
		<rect x="39.533" y="47.046" transform="matrix(-0.7071 -0.7071 0.7071 -0.7071 33.5465 110.4276)" fill="#272A35" width="0.221" height="2.441"/>
	
		<rect x="36.081" y="50.496" transform="matrix(-0.7071 -0.7071 0.7071 -0.7071 25.2153 113.8771)" fill="#272A35" width="0.222" height="2.44"/>
	
		<rect x="32.63" y="53.947" transform="matrix(-0.7049 -0.7093 0.7093 -0.7049 16.6911 117.2789)" fill="#272A35" width="0.223" height="2.44"/>
	
		<rect x="25.727" y="60.848" transform="matrix(-0.7071 -0.7071 0.7071 -0.7071 0.2206 124.2261)" fill="#272A35" width="0.224" height="2.44"/>
	<polygon fill="#272A35" points="21.994,65.754 20.824,64.583 20.666,64.741 21.919,65.992 22.001,65.911 22.075,65.986 
		23.329,64.734 23.172,64.576 	"/>
	
		<rect x="35.444" y="36.553" transform="matrix(-0.7075 -0.7067 0.7067 -0.7075 36.6942 88.5152)" fill="#272A35" width="2.44" height="0.222"/>
	
		<rect x="38.895" y="40.005" transform="matrix(-0.7073 -0.7069 0.7069 -0.7073 40.1316 96.8459)" fill="#272A35" width="2.44" height="0.22"/>
	
		<rect x="31.994" y="33.103" transform="matrix(-0.7071 -0.7071 0.7071 -0.7071 33.2139 80.1854)" fill="#272A35" width="2.44" height="0.222"/>
	
		<rect x="28.542" y="29.651" transform="matrix(-0.707 -0.7072 0.7072 -0.707 29.7566 71.8539)" fill="#272A35" width="2.441" height="0.223"/>
	
		<rect x="61.965" y="24.62" transform="matrix(-0.7071 -0.7071 0.7071 -0.7071 87.6983 88.0055)" fill="#272A35" width="0.221" height="2.44"/>
	
		<rect x="55.062" y="31.52" transform="matrix(-0.7027 -0.7115 0.7115 -0.7027 70.6463 95.0021)" fill="#272A35" width="0.221" height="2.44"/>
	<polygon fill="#272A35" points="45.604,42.149 43.956,43.797 42.783,42.623 42.627,42.78 43.8,43.953 42.154,45.601 42.311,45.758 
		43.956,44.111 45.604,45.758 45.761,45.601 44.114,43.953 45.761,42.307 	"/>
	
		<rect x="51.611" y="34.972" transform="matrix(-0.7093 -0.7049 0.7049 -0.7093 62.898 98.3203)" fill="#272A35" width="0.222" height="2.438"/>
	
		<rect x="48.16" y="38.42" transform="matrix(-0.7071 -0.7071 0.7071 -0.7071 54.3736 101.8035)" fill="#272A35" width="0.222" height="2.441"/>
	
		<rect x="58.513" y="28.07" transform="matrix(-0.7115 -0.7027 0.7027 -0.7115 79.7527 91.3254)" fill="#272A35" width="0.222" height="2.44"/>
	
		<rect x="47.049" y="48.156" transform="matrix(-0.7065 -0.7077 0.7077 -0.7065 48.2142 116.5291)" fill="#272A35" width="2.441" height="0.222"/>
	
		<rect x="64.399" y="65.178" transform="matrix(-0.7077 -0.7066 0.7066 -0.7077 65.3539 157.6178)" fill="#272A35" width="1.771" height="0.221"/>
	
		<rect x="53.95" y="55.058" transform="matrix(-0.7071 -0.7071 0.7071 -0.7071 55.1706 133.1903)" fill="#272A35" width="2.44" height="0.222"/>
	
		<rect x="57.402" y="58.511" transform="matrix(-0.7071 -0.7071 0.7071 -0.7071 58.6204 141.5255)" fill="#272A35" width="2.439" height="0.222"/>
	
		<rect x="50.5" y="51.609" transform="matrix(-0.7071 -0.7071 0.7071 -0.7071 51.7209 124.862)" fill="#272A35" width="2.44" height="0.221"/>
	
		<rect x="60.851" y="61.961" transform="matrix(-0.7073 -0.7069 0.7069 -0.7073 62.0954 149.855)" fill="#272A35" width="2.44" height="0.222"/>
</g>
<g opacity="0.04">
	<path fill="#272A35" d="M164.347-5.153c0.002-0.021,0-0.043-0.003-0.062c-0.038-0.271-0.206-0.5-0.517-0.702
		c-0.287-0.174-0.617-0.269-0.952-0.269c-0.08,0-0.155,0.032-0.204,0.088c-0.047,0.05-0.068,0.12-0.061,0.193
		c0.19,1.738,0.19,3.896,0,5.632c-0.008,0.076,0.013,0.141,0.061,0.195c0.048,0.054,0.123,0.084,0.204,0.084l0,0
		c0.337,0,0.668-0.095,0.957-0.272c0.307-0.197,0.474-0.424,0.512-0.694c0.005-0.017,0.005-0.043,0.005-0.062
		C164.249-2.335,164.249-3.842,164.347-5.153z"/>
	<path fill="#272A35" d="M161.16-5.603c-0.171-0.371-0.505-0.585-0.916-0.585c-0.248,0-0.474,0.146-0.681,0.437
		c-0.115,0.172-0.227,0.401-0.336,0.688c-0.003,0.013-0.008,0.021-0.013,0.033c-0.003,0.008-0.004,0.016-0.007,0.022
		c-0.015,0.061-0.009,0.13,0.016,0.203c0.064,0.187,0.234,0.328,0.396,0.328c0.047,0,0.09-0.01,0.131-0.033
		c0.009-0.006,0.023-0.016,0.031-0.02l0.01-0.009c0-0.001,0.002-0.003,0.003-0.005c0.03-0.018,0.054-0.036,0.075-0.047
		c0.244,0.984,0.244,2.022,0.002,3.003c-0.021-0.013-0.047-0.03-0.077-0.05c-0.003-0.004-0.007-0.006-0.011-0.009
		c-0.011-0.011-0.023-0.019-0.035-0.024c-0.039-0.022-0.08-0.033-0.127-0.033c-0.164,0-0.332,0.141-0.397,0.328
		c-0.024,0.073-0.03,0.142-0.016,0.198c0.003,0.015,0.006,0.026,0.011,0.034c0.004,0.006,0.006,0.012,0.006,0.012
		c0.113,0.307,0.225,0.531,0.343,0.71c0.203,0.286,0.43,0.43,0.679,0.431c0,0,0,0,0.002,0c0.412-0.004,0.736-0.207,0.908-0.576
		c0.115-0.224,0.271-0.644,0.35-1.358c0.078-0.762,0.078-1.566-0.002-2.325C161.446-4.81,161.323-5.292,161.16-5.603z"/>
	<path fill="#272A35" d="M165.797-5.603c0.171-0.371,0.504-0.585,0.917-0.585c0.246,0,0.475,0.146,0.681,0.437
		c0.112,0.172,0.228,0.401,0.333,0.688c0.006,0.013,0.014,0.021,0.014,0.033c0.003,0.008,0.006,0.016,0.008,0.022
		c0.016,0.061,0.012,0.13-0.016,0.203c-0.062,0.187-0.232,0.328-0.396,0.328c-0.048,0-0.091-0.01-0.134-0.033
		c-0.008-0.006-0.023-0.016-0.029-0.02l-0.01-0.009c-0.002-0.001-0.005-0.003-0.005-0.005c-0.028-0.018-0.052-0.036-0.075-0.047
		c-0.245,0.984-0.245,2.022,0,3.003c0.021-0.013,0.047-0.03,0.075-0.05c0.005-0.004,0.009-0.006,0.013-0.009
		c0.01-0.011,0.02-0.019,0.036-0.024c0.038-0.022,0.079-0.033,0.126-0.033c0.163,0,0.332,0.141,0.396,0.328
		c0.022,0.073,0.029,0.142,0.016,0.198c-0.004,0.015-0.006,0.026-0.01,0.034c-0.004,0.006-0.006,0.012-0.008,0.012
		c-0.113,0.307-0.224,0.531-0.342,0.71c-0.203,0.286-0.43,0.43-0.679,0.431l0,0c-0.415-0.004-0.737-0.207-0.909-0.576
		c-0.117-0.224-0.273-0.644-0.35-1.358c-0.08-0.762-0.08-1.566,0-2.325C165.513-4.81,165.634-5.292,165.797-5.603z"/>
</g>
<g opacity="0.5">
	
		<line opacity="0.4" fill="none" stroke="#272A35" stroke-width="0.1107" stroke-miterlimit="10" stroke-dasharray="1.2141" enable-background="new    " x1="152.554" y1="-14.016" x2="141.627" y2="-3.092"/>
	
		<line opacity="0.4" fill="none" stroke="#272A35" stroke-width="0.1107" stroke-miterlimit="10" stroke-dasharray="1.2141" enable-background="new    " x1="141.627" y1="-24.94" x2="152.554" y2="-14.016"/>
	
		<line opacity="0.4" fill="none" stroke="#272A35" stroke-width="0.1107" stroke-miterlimit="10" stroke-dasharray="1.2141" enable-background="new    " x1="152.554" y1="-14.016" x2="163.481" y2="-24.94"/>
	
		<line opacity="0.4" fill="none" stroke="#272A35" stroke-width="0.1107" stroke-miterlimit="10" stroke-dasharray="1.2141" enable-background="new    " x1="152.554" y1="-14.016" x2="163.478" y2="-3.089"/>
	
		<line opacity="0.4" fill="none" stroke="#272A35" stroke-width="0.1107" stroke-miterlimit="10" stroke-dasharray="1.2141" enable-background="new    " x1="174.404" y1="-14.016" x2="163.478" y2="-3.092"/>
	
		<line opacity="0.4" fill="none" stroke="#272A35" stroke-width="0.1107" stroke-miterlimit="10" stroke-dasharray="1.2141" enable-background="new    " x1="163.478" y1="-24.94" x2="174.404" y2="-14.016"/>
	
		<line opacity="0.4" fill="none" stroke="#272A35" stroke-width="0.1107" stroke-miterlimit="10" stroke-dasharray="1.2141" enable-background="new    " x1="174.404" y1="-14.016" x2="185.331" y2="-24.94"/>
	
		<line opacity="0.4" fill="none" stroke="#272A35" stroke-width="0.1107" stroke-miterlimit="10" stroke-dasharray="1.2141" enable-background="new    " x1="174.404" y1="-14.016" x2="185.328" y2="-3.089"/>
	
		<line opacity="0.4" fill="none" stroke="#272A35" stroke-width="0.1107" stroke-miterlimit="10" stroke-dasharray="1.2141" enable-background="new    " x1="152.554" y1="7.834" x2="141.627" y2="18.758"/>
	
		<line opacity="0.4" fill="none" stroke="#272A35" stroke-width="0.1107" stroke-miterlimit="10" stroke-dasharray="1.2141" enable-background="new    " x1="141.627" y1="-3.089" x2="152.554" y2="7.834"/>
	
		<line opacity="0.4" fill="none" stroke="#272A35" stroke-width="0.1107" stroke-miterlimit="10" stroke-dasharray="1.2141" enable-background="new    " x1="152.554" y1="7.834" x2="163.481" y2="-3.089"/>
	
		<line opacity="0.4" fill="none" stroke="#272A35" stroke-width="0.1107" stroke-miterlimit="10" stroke-dasharray="1.2141" enable-background="new    " x1="152.554" y1="7.834" x2="163.478" y2="18.761"/>
	
		<line opacity="0.4" fill="none" stroke="#272A35" stroke-width="0.1107" stroke-miterlimit="10" stroke-dasharray="1.2141" enable-background="new    " x1="174.404" y1="7.834" x2="163.478" y2="18.758"/>
	
		<line opacity="0.4" fill="none" stroke="#272A35" stroke-width="0.1107" stroke-miterlimit="10" stroke-dasharray="1.2141" enable-background="new    " x1="163.478" y1="-3.089" x2="174.404" y2="7.834"/>
	
		<line opacity="0.4" fill="none" stroke="#272A35" stroke-width="0.1107" stroke-miterlimit="10" stroke-dasharray="1.2141" enable-background="new    " x1="174.404" y1="7.834" x2="185.331" y2="-3.089"/>
	
		<line opacity="0.4" fill="none" stroke="#272A35" stroke-width="0.1107" stroke-miterlimit="10" stroke-dasharray="1.2141" enable-background="new    " x1="174.404" y1="7.834" x2="185.328" y2="18.761"/>
</g>
<g opacity="0.05">
	<path fill="#272A35" d="M20.86,19.202c-0.019-0.022-0.042-0.042-0.062-0.056c-0.294-0.223-0.674-0.281-1.165-0.176
		c-0.44,0.107-0.845,0.332-1.166,0.651c-0.076,0.077-0.117,0.178-0.111,0.279c0.003,0.093,0.049,0.18,0.126,0.243
		c1.842,1.477,3.903,3.539,5.378,5.379c0.065,0.079,0.147,0.122,0.245,0.128c0.097,0.006,0.198-0.036,0.275-0.114l0,0
		c0.321-0.321,0.548-0.729,0.654-1.174c0.105-0.481,0.048-0.858-0.174-1.151c-0.011-0.021-0.037-0.046-0.055-0.064
		C23.458,21.985,22.02,20.547,20.86,19.202z"/>
	<path fill="#272A35" d="M17.388,21.816c-0.517-0.192-1.042-0.077-1.434,0.315c-0.237,0.237-0.313,0.592-0.232,1.067
		c0.054,0.275,0.166,0.6,0.336,0.979c0.009,0.015,0.012,0.027,0.019,0.043c0.005,0.01,0.012,0.019,0.014,0.028
		c0.044,0.072,0.116,0.132,0.209,0.179c0.24,0.117,0.537,0.089,0.692-0.066c0.045-0.045,0.076-0.096,0.094-0.157
		c0.002-0.013,0.007-0.037,0.01-0.048l0.001-0.018c-0.001-0.001-0.002-0.004-0.002-0.007c0.012-0.045,0.017-0.086,0.027-0.117
		c1.172,0.708,2.164,1.698,2.869,2.867c-0.033,0.007-0.073,0.016-0.121,0.025c-0.007-0.001-0.013,0.001-0.02,0.001
		c-0.02,0-0.039,0.004-0.057,0.011c-0.058,0.015-0.107,0.044-0.152,0.09c-0.156,0.155-0.183,0.451-0.066,0.692
		c0.047,0.093,0.106,0.164,0.174,0.204c0.017,0.01,0.03,0.019,0.042,0.022c0.009,0.002,0.018,0.005,0.018,0.005
		c0.401,0.185,0.72,0.293,1.004,0.351c0.468,0.08,0.821,0,1.061-0.236c0,0,0,0,0.001-0.001c0.39-0.398,0.506-0.902,0.317-1.418
		c-0.105-0.324-0.355-0.875-0.963-1.631c-0.652-0.802-1.42-1.57-2.222-2.219C18.418,22.299,17.84,21.957,17.388,21.816z"/>
	<path fill="#272A35" d="M21.816,17.388c-0.192-0.517-0.079-1.04,0.316-1.435c0.235-0.235,0.593-0.314,1.067-0.233
		c0.272,0.057,0.6,0.166,0.976,0.339c0.018,0.007,0.032,0.008,0.044,0.019c0.01,0.005,0.021,0.01,0.029,0.013
		c0.073,0.043,0.136,0.114,0.179,0.209c0.119,0.238,0.09,0.536-0.065,0.691c-0.045,0.045-0.096,0.077-0.159,0.096
		c-0.014,0.003-0.037,0.008-0.047,0.009l-0.019,0.001c-0.002,0-0.008,0.001-0.009,0c-0.043,0.011-0.084,0.015-0.116,0.026
		c0.706,1.175,1.696,2.166,2.868,2.868c0.006-0.032,0.016-0.073,0.023-0.119c0-0.008,0.003-0.014,0.003-0.021
		c0-0.02,0.001-0.037,0.011-0.058c0.015-0.058,0.044-0.106,0.089-0.152c0.156-0.156,0.452-0.183,0.691-0.065
		c0.092,0.048,0.164,0.106,0.205,0.173c0.01,0.018,0.018,0.031,0.022,0.042c0.002,0.008,0.006,0.017,0.004,0.019
		c0.185,0.401,0.293,0.72,0.351,1.004c0.08,0.467,0.001,0.82-0.235,1.06l0,0c-0.4,0.392-0.902,0.506-1.418,0.318
		c-0.326-0.102-0.875-0.354-1.631-0.962c-0.803-0.652-1.571-1.42-2.22-2.221C22.301,18.417,21.957,17.84,21.816,17.388z"/>
</g>
</svg>
